<svg width="25" height="24" viewBox="0 0 25 24" fill="none" xmlns="http://www.w3.org/2000/svg">
<g id="Group 4">
<circle id="Ellipse 2" cx="12.9062" cy="12" r="12" fill="#F2F0F2"/>
<g id="Group 1">
<mask id="mask0_7172_7806" style="mask-type:alpha" maskUnits="userSpaceOnUse" x="0" y="0" width="25" height="24">
<circle id="Ellipse 1" cx="12.9062" cy="12" r="12" fill="#FCFCFC"/>
</mask>
<g mask="url(#mask0_7172_7806)">
<g id="Rectangle 1">
<rect x="4.80664" y="21.3" width="16.5" height="3" fill="#D90026"/>
<rect x="4.80664" y="21.3" width="16.5" height="3" fill="#D90026"/>
</g>
<g id="Rectangle 2">
<rect x="1.20703" y="15.3" width="23.7" height="3" fill="#D90026"/>
<rect x="1.20703" y="15.3" width="23.7" height="3" fill="#D90026"/>
</g>
<g id="Rectangle 3">
<rect x="1.20703" y="9" width="23.7" height="3" fill="#D90026"/>
<rect x="1.20703" y="9" width="23.7" height="3" fill="#D90026"/>
</g>
<g id="Rectangle 4">
<rect x="1.20703" y="3" width="23.7" height="3" fill="#D90026"/>
<rect x="1.20703" y="3" width="23.7" height="3" fill="#D90026"/>
</g>
<rect id="Rectangle 5" x="0.90625" width="12.3" height="12" fill="#0052B5"/>
<path id="Vector 1" d="M10.8055 10.05L9.90547 10.5L10.2055 9.59998L9.60547 8.99998H10.5055L10.8055 8.09998L11.2555 8.99998H12.0055L11.4055 9.59998L11.7055 10.5L10.8055 10.05Z" fill="#EFEFEF"/>
<path id="Vector 4" d="M6.60625 10.05L5.70625 10.5L6.00625 9.59998L5.40625 8.99998H6.30625L6.60625 8.09998L7.05625 8.99998H7.80625L7.20625 9.59998L7.50625 10.5L6.60625 10.05Z" fill="#EFEFEF"/>
<path id="Vector 5" d="M2.40703 10.05L1.50703 10.5L1.80703 9.59998L1.20703 8.99998H2.10703L2.40703 8.09998L2.85703 8.99998H3.60703L3.00703 9.59998L3.30703 10.5L2.40703 10.05Z" fill="#EFEFEF"/>
<path id="Vector 2" d="M10.8055 6.74999L9.90547 7.19999L10.2055 6.29999L9.60547 5.69999H10.5055L10.8055 4.79999L11.2555 5.69999H12.0055L11.4055 6.29999L11.7055 7.19999L10.8055 6.74999Z" fill="#EFEFEF"/>
<path id="Vector 6" d="M10.8055 3.45L9.90547 3.9L10.2055 3L9.60547 2.4H10.5055L10.8055 1.5L11.2555 2.4H12.0055L11.4055 3L11.7055 3.9L10.8055 3.45Z" fill="#EFEFEF"/>
<path id="Vector 9" d="M10.8055 0.150012L9.90547 0.600012L10.2055 -0.299988L9.60547 -0.899988H10.5055L10.8055 -1.79999L11.2555 -0.899988H12.0055L11.4055 -0.299988L11.7055 0.600012L10.8055 0.150012Z" fill="#EFEFEF"/>
<path id="Vector 7" d="M6.60625 3.45L5.70625 3.9L6.00625 3L5.40625 2.4H6.30625L6.60625 1.5L7.05625 2.4H7.80625L7.20625 3L7.50625 3.9L6.60625 3.45Z" fill="#EFEFEF"/>
<path id="Vector 3" d="M6.60625 6.74999L5.70625 7.19999L6.00625 6.29999L5.40625 5.69999H6.30625L6.60625 4.79999L7.05625 5.69999H7.80625L7.20625 6.29999L7.50625 7.19999L6.60625 6.74999Z" fill="#EFEFEF"/>
<path id="Vector 8" d="M2.40703 6.74999L1.50703 7.19999L1.80703 6.29999L1.20703 5.69999H2.10703L2.40703 4.79999L2.85703 5.69999H3.60703L3.00703 6.29999L3.30703 7.19999L2.40703 6.74999Z" fill="#EFEFEF"/>
</g>
</g>
</g>
</svg>
