<svg width="20" height="20" viewBox="0 0 20 20" fill="none" xmlns="http://www.w3.org/2000/svg">
<path id="Vector (Stroke)" fill-rule="evenodd" clip-rule="evenodd" d="M5.26413 0C5.84549 0 6.31677 0.447715 6.31677 1V2H12.6326V1C12.6326 0.447715 13.1038 0 13.6852 0C14.2665 0 14.7378 0.447715 14.7378 1V2H15.7905C16.628 2 17.4312 2.31607 18.0234 2.87868C18.6156 3.44129 18.9483 4.20435 18.9483 5V11C18.9483 11.5523 18.4771 12 17.8957 12C17.3144 12 16.8431 11.5523 16.8431 11V10H2.10624V17C2.10624 17.2652 2.21714 17.5196 2.41455 17.7071C2.61196 17.8946 2.8797 18 3.15887 18H8.94835C9.5297 18 10.001 18.4477 10.001 19C10.001 19.5523 9.5297 20 8.94835 20H3.15887C2.32135 20 1.51812 19.6839 0.925902 19.1213C0.333682 18.5587 0.000976562 17.7957 0.000976562 17V5C0.000976562 4.20435 0.333682 3.44129 0.925902 2.87868C1.51812 2.31607 2.32135 2 3.15887 2H4.2115V1C4.2115 0.447715 4.68278 0 5.26413 0ZM4.2115 4H3.15887C2.8797 4 2.61196 4.10536 2.41455 4.29289C2.21714 4.48043 2.10624 4.73478 2.10624 5V8H16.8431V5C16.8431 4.73478 16.7322 4.48043 16.5348 4.29289C16.3374 4.10536 16.0696 4 15.7905 4H14.7378V5C14.7378 5.55229 14.2665 6 13.6852 6C13.1038 6 12.6326 5.55229 12.6326 5V4H6.31677V5C6.31677 5.55229 5.84549 6 5.26413 6C4.68278 6 4.2115 5.55229 4.2115 5V4ZM19.6927 14.2929C20.1037 14.6834 20.1037 15.3166 19.6927 15.7071L15.4821 19.7071C15.0711 20.0976 14.4046 20.0976 13.9935 19.7071L11.8882 17.7071C11.4772 17.3166 11.4772 16.6834 11.8882 16.2929C12.2993 15.9024 12.9658 15.9024 13.3769 16.2929L14.7378 17.5858L18.204 14.2929C18.6151 13.9024 19.2816 13.9024 19.6927 14.2929Z" fill="#9CA3AF"/>
</svg>
