<svg width="24" height="24" viewBox="0 0 24 24" fill="none" xmlns="http://www.w3.org/2000/svg">
<g id="Group 6">
<path id="Vector" d="M12 24C18.6274 24 24 18.6274 24 12C24 5.37258 18.6274 0 12 0C5.37258 0 0 5.37258 0 12C0 18.6274 5.37258 24 12 24Z" fill="#F5F5F5"/>
<path id="Vector_2" d="M8.55989 12.6801C9.67989 13.4401 11.2399 13.1201 11.9999 12.0001C12.7599 10.8801 14.2799 10.5601 15.4399 11.3201C16.5199 12.0401 16.8399 13.4401 16.2399 14.5201C17.5599 12.2801 16.9599 9.36005 14.7199 7.88005C12.4399 6.36005 9.35989 6.96005 7.83989 9.24005C7.79989 9.32005 7.75989 9.40005 7.71989 9.44005C7.15989 10.6001 7.51989 11.9601 8.55989 12.6801Z" fill="#ED4C5C"/>
<path id="Vector_3" d="M16.1201 14.7599C16.1601 14.6799 16.2001 14.5999 16.2401 14.5599C16.2001 14.5999 16.1601 14.6799 16.1201 14.7599Z" fill="#003478"/>
<path id="Vector_4" d="M15.44 11.3199C14.32 10.5599 12.76 10.8799 12 11.9999C11.24 13.1199 9.71999 13.4399 8.55999 12.6799C7.47999 11.9599 7.15999 10.5599 7.75999 9.47986C6.39999 11.7199 7.03999 14.6399 9.27999 16.1199C11.56 17.6399 14.64 17.0399 16.16 14.7599C16.2 14.6799 16.24 14.5999 16.28 14.5599C16.84 13.3999 16.48 12.0399 15.44 11.3199Z" fill="#428BC1"/>
<g id="Group">
<path id="Vector_5" d="M2.31977 8.52004L5.07977 4.40004L4.79977 4.20004L4.51977 4.04004L1.75977 8.16004L2.03977 8.32004L2.31977 8.52004Z" fill="#3E4347"/>
<path id="Vector_6" d="M3.0798 9.03973L3.3598 9.19973L6.07981 5.07973L5.83981 4.91973L5.5598 4.71973L2.7998 8.83973L3.0798 9.03973Z" fill="#3E4347"/>
<path id="Vector_7" d="M6.55984 5.40002L3.83984 9.52002L4.11984 9.72002L4.39984 9.88002L7.11984 5.76002L6.83984 5.60002L6.55984 5.40002Z" fill="#3E4347"/>
<path id="Vector_8" d="M18.5993 16.1999L18.8793 16.3999L20.1593 14.4799L19.8793 14.2799L19.5993 14.1199L18.3193 16.0399L18.5993 16.1999Z" fill="#3E4347"/>
<path id="Vector_9" d="M21.6794 15.4799L20.3994 17.3999L20.6794 17.5999L20.9594 17.7599L22.2394 15.8399L21.9594 15.6799L21.6794 15.4799Z" fill="#3E4347"/>
<path id="Vector_10" d="M19.9194 17.0802L21.1994 15.1602L20.9194 14.9602L20.6394 14.8002L19.3594 16.7202L19.6394 16.8802L19.9194 17.0802Z" fill="#3E4347"/>
<path id="Vector_11" d="M18.4399 16.4801L18.1599 16.3201L16.8799 18.2401L17.1599 18.4001L17.4399 18.6001L18.7199 16.6801L18.4399 16.4801Z" fill="#3E4347"/>
<path id="Vector_12" d="M19.4399 17.1598L19.1999 16.9998L17.9199 18.9198L18.1599 19.0798L18.4399 19.2798L19.7199 17.3598L19.4399 17.1598Z" fill="#3E4347"/>
<path id="Vector_13" d="M20.1999 17.6801L18.9199 19.6001L19.1999 19.8001L19.4799 19.9601L20.7599 18.0401L20.4799 17.8401L20.1999 17.6801Z" fill="#3E4347"/>
<path id="Vector_14" d="M2.03977 15.6799L1.75977 15.8399L4.51977 19.9599L4.79977 19.7999L5.07977 19.5999L2.31977 15.4799L2.03977 15.6799Z" fill="#3E4347"/>
<path id="Vector_15" d="M4.5593 17.1598L4.2793 17.3598L5.5593 19.2798L5.8393 19.0798L6.0793 18.9198L4.7993 16.9998L4.5593 17.1598Z" fill="#3E4347"/>
<path id="Vector_16" d="M4.11984 14.2799L3.83984 14.4799L6.55984 18.5999L6.83984 18.3999L7.11984 18.2399L4.39984 14.1199L4.11984 14.2799Z" fill="#3E4347"/>
<path id="Vector_17" d="M2.7998 15.1602L4.0798 17.0802L4.3598 16.8802L4.6398 16.7202L3.3598 14.8002L3.0798 14.9602L2.7998 15.1602Z" fill="#3E4347"/>
<path id="Vector_18" d="M20.4799 6.16004L20.7599 5.96004L19.4799 4.04004L19.1999 4.20004L18.9199 4.40004L20.1999 6.32004L20.4799 6.16004Z" fill="#3E4347"/>
<path id="Vector_19" d="M18.4399 7.52002L18.7199 7.32002L17.4399 5.40002L17.1599 5.60002L16.8799 5.76002L18.1599 7.68002L18.4399 7.52002Z" fill="#3E4347"/>
<path id="Vector_20" d="M20.3994 6.60023L21.6794 8.52023L21.9594 8.32023L22.2394 8.16023L20.9594 6.24023L20.6794 6.40023L20.3994 6.60023Z" fill="#3E4347"/>
<path id="Vector_21" d="M20.9199 9.03973L21.1999 8.83973L18.4399 4.71973L18.1599 4.91973L17.9199 5.07973L20.6399 9.19973L20.9199 9.03973Z" fill="#3E4347"/>
<path id="Vector_22" d="M19.8793 9.72022L20.1593 9.52022L18.8793 7.60022L18.5993 7.80022L18.3193 7.96022L19.5993 9.88022L19.8793 9.72022Z" fill="#3E4347"/>
</g>
</g>
</svg>
