<svg width="48" height="48" viewBox="0 0 48 48" fill="none" xmlns="http://www.w3.org/2000/svg">
<g id="photo-cancel">
<path id="Vector (Stroke)" fill-rule="evenodd" clip-rule="evenodd" d="M12 8C10.9391 8 9.92172 8.42143 9.17157 9.17157C8.42143 9.92172 8 10.9391 8 12V27.1716L14.5858 20.5858L14.6132 20.5589C15.8415 19.3769 17.3545 18.6605 19 18.6605C20.6455 18.6605 22.1585 19.3769 23.3868 20.5589L23.4142 20.5858L28 25.1716L28.5858 24.5858L28.6129 24.5591C30.2646 22.9692 32.4032 22.2641 34.5647 22.8807C35.6269 23.1838 36.2423 24.2905 35.9393 25.3527C35.6362 26.4149 34.5295 27.0303 33.4673 26.7273C32.9117 26.5688 32.2067 26.6579 31.3995 27.4289L29.4142 29.4142C28.6332 30.1953 27.3668 30.1953 26.5858 29.4142L20.6007 23.4291C19.9781 22.8347 19.4237 22.6605 19 22.6605C18.5763 22.6605 18.0219 22.8347 17.3993 23.4291L8 32.8284V36C8 37.0609 8.42143 38.0783 9.17157 38.8284C9.92172 39.5786 10.9391 40 12 40H25C26.1046 40 27 40.8954 27 42C27 43.1046 26.1046 44 25 44H12C9.87827 44 7.84344 43.1571 6.34315 41.6569C4.84285 40.1566 4 38.1217 4 36V32.0003C4 32.0001 4 31.9999 4 31.9996V12C4 9.87827 4.84285 7.84344 6.34315 6.34315C7.84344 4.84285 9.87827 4 12 4H36C38.1217 4 40.1566 4.84285 41.6569 6.34315C43.1571 7.84344 44 9.87827 44 12V25C44 26.1046 43.1046 27 42 27C40.8954 27 40 26.1046 40 25V12C40 10.9391 39.5786 9.92172 38.8284 9.17157C38.0783 8.42143 37.0609 8 36 8H12ZM28 16C28 14.8954 28.8954 14 30 14H30.02C31.1246 14 32.02 14.8954 32.02 16C32.02 17.1046 31.1246 18 30.02 18H30C28.8954 18 28 17.1046 28 16ZM32.3431 32.3431C33.8434 30.8429 35.8783 30 38 30C40.1217 30 42.1566 30.8429 43.6569 32.3431C45.1571 33.8434 46 35.8783 46 38C46 40.1217 45.1571 42.1566 43.6569 43.6569C42.1566 45.1571 40.1217 46 38 46C35.8783 46 33.8434 45.1571 32.3431 43.6569C30.8429 42.1566 30 40.1217 30 38C30 35.8783 30.8429 33.8434 32.3431 32.3431ZM38 34C36.9391 34 35.9217 34.4214 35.1716 35.1716C34.4214 35.9217 34 36.9391 34 38C34 38.3526 34.0466 38.7005 34.1363 39.0353L39.0353 34.1363C38.7005 34.0466 38.3526 34 38 34ZM41.8637 36.9647L36.9647 41.8637C37.2995 41.9534 37.6474 42 38 42C39.0609 42 40.0783 41.5786 40.8284 40.8284C41.5786 40.0783 42 39.0609 42 38C42 37.6474 41.9534 37.2995 41.8637 36.9647Z" fill="#A9AFBC"/>
</g>
</svg>
